<svg xmlns="http://www.w3.org/2000/svg" enable-background="new 0 0 80 80" viewBox="0 0 80 80"><path d="M65.1850586,44.6601562c-0.1274414,0-0.2539062,0.0019531-0.3789062,0.0068359
	c0.0795898-0.5058594,0.1196289-1.015625,0.1196289-1.5253906c0-4.2011719-2.6581421-7.7836914-6.3766479-9.1809082
	c0.078125-0.4929199,0.1310425-0.9875488,0.1310425-1.4812012c0-5.1552734-4.1943359-9.3496094-9.3500977-9.3496094
	c-3.7644043,0-7.0888672,2.2224121-8.5623779,5.6169434c-1.0541992-0.2939453-2.1561279-0.4567871-3.2862549-0.4567871
	c-6.2016602,0-11.3491211,4.6005859-12.2075195,10.5683594c-2.0332031-1.1513672-4.3125-1.7539062-6.6811523-1.7539062
	C11.0976562,37.1044922,5,43.2021484,5,50.6972656s6.0976562,13.5927734,13.5927734,13.5927734h46.5922852
	C70.597168,64.2900391,75,59.8867188,75,54.4746094S70.597168,44.6601562,65.1850586,44.6601562z M49.3300781,25.1298828
	c4.0527344,0,7.3500977,3.296875,7.3500977,7.3496094c0,0.3242188-0.0228882,0.6499023-0.065918,0.9750977
	c-0.491333-0.0761719-0.9906616-0.1274414-1.5029297-0.1274414c-2.3422852,0-4.5805664,0.8339844-6.3442383,2.3291016
	c-1.215332-2.7692871-3.4172974-4.965332-6.1063843-6.2163086C43.8430786,26.8352051,46.413269,25.1298828,49.3300781,25.1298828z
	 M65.1850586,62.2900391H18.5927734C12.2006836,62.2900391,7,57.0898438,7,50.6972656s5.2006836-11.5927734,11.5927734-11.5927734
	c2.5244141,0,4.9296875,0.8017578,6.9560547,2.3193359l1.5991211,1.1972656v-1.9980469
	c0-5.6972656,4.6357422-10.3330078,10.3334961-10.3330078c4.5869141,0,8.6650391,3.0673828,9.918457,7.4589844l0.5151367,1.8056641
	l1.2104492-1.4355469c1.4970703-1.7744141,3.6787109-2.7919922,5.9858398-2.7919922
	c4.309082,0,7.8144531,3.5058594,7.8144531,7.8144531c0,0.7998047-0.1245117,1.6015625-0.3696289,2.3837891l-0.5102539,1.6269531
	l1.6689453-0.3496094c0.453125-0.0947266,0.9477539-0.1425781,1.4702148-0.1425781
	C69.4941406,46.6601562,73,50.1660156,73,54.4746094C73,58.7841797,69.4941406,62.2900391,65.1850586,62.2900391z"/><rect width="2" height="4.638" x="48.333" y="16.71"/><rect width="4.638" height="2" x="60.696" y="31.594"/><rect width="2" height="4.638" x="38.66" y="20.717" transform="rotate(-45 39.66 23.036)"/><rect width="4.638" height="2" x="56.689" y="22.036" transform="rotate(-45 59.008 23.036)"/></svg>